<svg width="136" height="182" viewBox="0 0 136 182" fill="none" xmlns="http://www.w3.org/2000/svg">
<path d="M56.9768 91.7598L61.7621 91.6781L61.4559 74.2219L56.2878 74.31L56.2348 71.2906L67.4324 71.0995L84.4813 87.9307L84.2339 73.8336L79.0658 73.9217L79.0128 70.9022L93.6559 70.6526L93.7088 73.672L88.5407 73.7601L88.8999 94.2358L84.7845 94.306L65.7801 75.1486L66.0688 91.6047L71.2369 91.5166L71.2899 94.536L57.0298 94.7792L56.9768 91.7598ZM90.3012 95.5333L89.942 75.0576L95.1101 74.9695L95.0507 71.5726L95.8162 71.5595L95.8884 75.6735L90.7203 75.7616L91.0795 96.2374L85.9687 96.3246L85.9561 95.6074L90.3012 95.5333ZM71.1432 71.9802L83.6656 83.9992L83.6847 85.0937L70.1287 71.9975L71.1432 71.9802ZM80.2374 75.223L83.4532 75.1683L83.4658 75.8853L80.25 75.9403L80.2374 75.223ZM57.4594 75.6114L60.6878 76.2737L57.472 76.3286L57.4594 75.6114ZM67.2033 77.6916L67.9836 78.509L68.1928 90.4358L67.4272 90.4489L67.2033 77.6916ZM72.6912 95.8335L72.6337 92.5499L73.3994 92.5369L73.4695 96.5377L58.214 96.7978L58.2014 96.0806L72.6912 95.8335Z" fill="#0DAB76"/>
<path d="M24.9764 101.436H39.9088V49.0597H24V40H69.0269V49.0597H52.946V101.436H92.8614V85.0155H105.784V110.496H24.9764V101.436ZM57.081 53.5896H73.1046V42.8311H75.402V55.7412H59.3784V98.0388H57.081V53.5896ZM27.446 53.5896H37.4967V55.7412H27.446V53.5896ZM109.919 114.46V88.1864H112.216V116.611H28.4224V114.46H109.919Z" fill="#0DAB76"/>
</svg>
